<svg xmlns="http://www.w3.org/2000/svg" version="1.1" xmlns:xlink="http://www.w3.org/1999/xlink" xmlns:svgjs="http://svgjs.dev/svgjs" width="430" height="932" preserveAspectRatio="none" viewBox="0 0 430 932"><g mask="url(&quot;#SvgjsMask1124&quot;)" fill="none"><rect width="430" height="932" x="0" y="0" fill="rgba(24, 106, 59, 1)"></rect><path d="M0,309.661C65.149,310.036,136.373,332.705,191.096,297.351C245.802,262.008,252.805,187.043,280.811,128.242C309.362,68.296,362.14,14.857,357.179,-51.355C352.148,-118.508,307.916,-179.445,254.671,-220.674C205.644,-258.637,136.804,-246.21,78.451,-267.18C14.87,-290.029,-36.329,-362.744,-102.482,-349.02C-168.004,-335.427,-203.15,-262.013,-233.627,-202.439C-259.533,-151.8,-255.098,-94.125,-261.779,-37.638C-268.266,17.206,-283.971,70.372,-272.279,124.346C-258.613,187.435,-243.054,258.842,-189.689,295.162C-136.181,331.58,-64.724,309.289,0,309.661" fill="#145730"></path><path d="M430 1268.488C492.487 1270.6689999999999 546.781 1229.133 597.133 1192.065 644.934 1156.875 688.033 1115.09 712.0830000000001 1060.823 735.971 1006.921 744.5 946.167 731.606 888.636 719.217 833.357 683.399 786.9780000000001 642.035 748.271 603.615 712.318 555.247 692.188 504.998 676.579 454.045 660.751 402.619 654.206 349.35699999999997 657.354 283.262 661.26 203.874 648.502 158.83999999999997 697.038 113.94600000000003 745.423 126.04399999999998 823.922 134.01299999999998 889.443 140.654 944.046 176.883 987.128 200.184 1036.954 223.222 1086.218 231.886 1142.057 270.199 1180.656 313.904 1224.687 367.999 1266.324 430 1268.488" fill="#1c7d46"></path></g><defs><mask id="SvgjsMask1124"><rect width="430" height="932" fill="#ffffff"></rect></mask></defs></svg>